<svg width="86" height="21" viewBox="0 0 86 21" fill="none" xmlns="http://www.w3.org/2000/svg">
<path fill-rule="evenodd" clip-rule="evenodd" d="M71.1311 14.2963V3.5965C71.1311 3.26005 71.1218 2.9231 71.1004 2.58687C71.0815 2.29988 71.063 2.01196 71.0311 1.72755L70.8972 0.656546H71.6988L82.3924 12.0574V2.795C82.3675 2.55148 82.2765 2.3444 82.1061 2.16803C81.9337 1.99295 81.7294 1.91632 81.4845 1.91632H80.7268V0.964813L85.7102 0.988061V1.93747H84.953C84.7174 1.93747 84.5238 2.02718 84.3581 2.19021C84.1929 2.35881 84.0961 2.55395 84.0836 2.79041V13.4548C84.0836 13.7785 84.0941 14.1026 84.1144 14.4256C84.1335 14.7228 84.1532 15.0214 84.1848 15.3187C84.2117 15.6172 84.2494 15.9155 84.2984 16.2108L84.3381 16.4474H83.5365L72.8431 5.02616V14.309C72.8683 14.5525 72.9634 14.7635 73.1338 14.9403C73.3024 15.1144 73.4989 15.1983 73.7403 15.1983H74.4879V16.1487H69.4972V15.1983H70.2443C70.488 15.1983 70.6854 15.1127 70.8558 14.9393C71.0305 14.7611 71.1189 14.5447 71.1311 14.2963ZM57.6803 9.71377H61.6681L59.7152 4.54222L57.6803 9.71377ZM65.697 13.8484L65.7886 14.0477C65.9401 14.3776 66.1554 14.6992 66.4716 14.8897C66.7075 15.0317 66.9741 15.1382 67.2534 15.1382H67.8066V16.0887H62.4088V15.1382H62.9692C63.1043 15.1382 63.2216 15.1016 63.3248 15.0171C63.4317 14.9262 63.4596 14.7949 63.4596 14.6597C63.4596 14.5536 63.4401 14.4486 63.4077 14.3475L62.1735 11.0859H57.159L55.8547 14.3861C55.8344 14.4747 55.8147 14.575 55.8147 14.6596C55.8147 14.8046 55.8486 14.9317 55.961 15.0256C56.0717 15.1148 56.1908 15.1592 56.3326 15.1592H56.893V16.1099H51.991V15.1592H52.5549C52.834 15.1592 53.1003 15.053 53.3359 14.9111C53.5781 14.7637 53.7624 14.5459 53.9047 14.3032L58.67 3.03338C58.7998 2.74153 58.9258 2.44721 59.0473 2.15374C59.1406 1.91527 59.2269 1.673 59.3049 1.42852C59.3556 1.2643 59.4121 1.05345 59.4121 0.88051V0.677557H60.2131L65.697 13.8484ZM47.7694 2.87044C47.756 2.61085 47.6595 2.39659 47.4796 2.21052C47.2988 2.02707 47.0837 1.93747 46.8261 1.93747H46.1773V0.986986H51.4665V1.93747H50.8173C50.5583 1.93747 50.3424 2.02884 50.1589 2.21218C49.9729 2.39836 49.8683 2.61355 49.8425 2.87518V15.8474C49.8425 16.4558 49.7388 17.0486 49.5153 17.6163C49.3018 18.1465 49.003 18.6314 48.61 19.0474C48.2197 19.4563 47.7627 19.7768 47.2454 20.0028C46.7099 20.242 46.1393 20.3501 45.5542 20.3501H45.3514V19.5413L45.485 19.4928C45.8153 19.3723 46.1121 19.1845 46.3746 18.9529C46.6572 18.6969 46.9012 18.405 47.0988 18.0785C47.3072 17.7323 47.4668 17.3611 47.5848 16.9742C47.7062 16.588 47.7694 16.1886 47.7694 15.7838V2.87044ZM31.515 8.55364C31.515 9.4622 31.6254 10.3758 31.9056 11.2419C32.1476 11.9894 32.5075 12.6856 33.019 13.2834C33.5003 13.8423 34.0752 14.2798 34.7429 14.5915C35.4456 14.9182 36.1939 15.0576 36.9661 15.0576C37.7428 15.0576 38.5032 14.9199 39.2105 14.5915C39.8765 14.2821 40.4485 13.8467 40.9226 13.2848C41.4283 12.6852 41.7864 11.9863 42.0342 11.2435C42.3231 10.3802 42.4347 9.46185 42.4347 8.55364C42.4347 7.64451 42.3211 6.73206 42.0339 5.86695C41.787 5.12272 41.4291 4.42311 40.9226 3.82232C40.4485 3.26063 39.8765 2.82548 39.2105 2.51594C38.5032 2.18751 37.7428 2.04985 36.9661 2.04985C36.1939 2.04985 35.4456 2.18951 34.7429 2.51571C34.0752 2.82772 33.5003 3.26522 33.0193 3.82375C32.5075 4.42171 32.1473 5.1181 31.9056 5.86564C31.6254 6.73206 31.515 7.64497 31.515 8.55364ZM29.1741 8.55364C29.1741 7.45338 29.3416 6.36253 29.7508 5.33782C30.1208 4.40247 30.6491 3.55919 31.3547 2.84272C32.0537 2.13261 32.8857 1.60207 33.8109 1.2362C34.8194 0.842733 35.887 0.677935 36.9661 0.677935C38.0436 0.677935 39.1109 0.843662 40.1181 1.23655C41.0455 1.60326 41.8763 2.13427 42.5807 2.8426C43.2867 3.55919 43.8184 4.40233 44.1885 5.33794C44.5977 6.36276 44.7652 7.4535 44.7652 8.55376C44.7652 9.65452 44.5974 10.7451 44.1885 11.7696C43.8202 12.7051 43.2896 13.5489 42.5799 14.2626C41.8748 14.9675 41.0443 15.498 40.1187 15.8639C39.1129 16.264 38.0447 16.4297 36.9661 16.4297C35.8858 16.4297 34.8171 16.2646 33.8104 15.8639C32.8868 15.4987 32.0551 14.969 31.3556 14.2621C30.6462 13.5493 30.1191 12.7046 29.7508 11.7701C29.3416 10.7449 29.1741 9.6544 29.1741 8.55364ZM18.8994 8.15756H19.8809C20.0157 8.15756 20.1507 8.14907 20.2849 8.13727L20.2939 8.13643H20.3029C20.5663 8.13643 20.8303 8.10859 21.0896 8.0623C21.3754 8.01107 21.6472 7.91828 21.9074 7.78818C22.1873 7.6516 22.4305 7.45881 22.6417 7.23188C22.8909 6.96096 23.0529 6.60916 23.1613 6.26007C23.2378 5.96328 23.2558 5.62682 23.2558 5.32152V5.12955C23.2335 4.42726 23.0831 3.69022 22.6356 3.1291C22.2409 2.63105 21.7193 2.39586 21.0919 2.35881C20.8575 2.34498 20.6231 2.33461 20.3881 2.3274C20.1713 2.32066 19.9542 2.31688 19.7372 2.31688C19.5636 2.31688 19.3894 2.31961 19.2156 2.3274C19.1104 2.33222 19.0049 2.33588 18.8997 2.33731L18.8994 8.15756ZM22.6481 9.47966C22.7536 9.5832 22.8538 9.69229 22.948 9.80632C23.1265 10.0145 23.2998 10.2257 23.4717 10.4392L23.4772 10.4462L23.4821 10.4534C23.7913 10.9143 24.1127 11.3663 24.4425 11.8119C24.7209 12.1843 25.0012 12.5553 25.2866 12.9223C25.5132 13.2135 25.7537 13.5163 26.0128 13.7797L26.016 13.7829L26.0195 13.7868C26.3716 14.1819 26.7674 14.5494 27.2096 14.8416C27.6478 15.1312 28.1917 15.2193 28.7075 15.2193H28.9098V16.1698H27.4006C26.9375 16.1698 26.466 16.1197 26.0229 15.9815C25.6491 15.8651 25.2849 15.7114 24.9499 15.509C24.654 15.3333 24.3764 15.126 24.1275 14.8848C23.9185 14.6758 23.7168 14.4558 23.5345 14.2233L23.5259 14.2122L23.5189 14.2004C23.4746 14.1241 23.3966 14.0312 23.3416 13.9592C23.2201 13.794 23.1036 13.6224 22.988 13.452C22.8443 13.2367 22.6953 13.0246 22.5481 12.813C22.3827 12.5792 22.2183 12.3451 22.0514 12.1136C21.7295 11.6782 21.4124 11.2405 21.1041 10.7965C20.8853 10.4879 20.6674 10.1767 20.4425 9.87267C20.3356 9.72783 20.2174 9.59099 20.0867 9.46717C19.9705 9.35689 19.8409 9.27 19.6984 9.20165C19.5439 9.13118 19.1666 9.11395 18.8997 9.10944V14.2742C18.9249 14.529 19.02 14.7474 19.1944 14.9335C19.3718 15.117 19.5816 15.1981 19.8357 15.1981H20.4701V16.1485H15.2551V15.1981H15.8897C16.1447 15.1981 16.3539 15.1161 16.5304 14.9306C16.7072 14.7448 16.8011 14.5218 16.826 14.2672V2.85417C16.8005 2.59763 16.7034 2.37509 16.5293 2.18597C16.3542 2.00239 16.145 1.91644 15.8897 1.91644H15.2551V0.963273L21.189 1.03598C22.3705 1.03598 23.5215 1.32205 24.4016 2.1522C25.2721 2.97375 25.5862 4.07296 25.5862 5.24408C25.5862 5.75396 25.5013 6.25344 25.3324 6.73418C25.1684 7.20486 24.9391 7.64898 24.6389 8.04684C24.346 8.4383 23.9947 8.77595 23.587 9.04629C23.2932 9.23966 22.9802 9.38583 22.6481 9.47966ZM11.8649 2.35928H8.31324V14.2707C8.33816 14.5276 8.44017 14.7446 8.62331 14.9279C8.81022 15.1175 9.03713 15.1979 9.3017 15.1979H9.95749V16.1484H4.64744V15.1979H5.30323C5.55563 15.1979 5.76834 15.1107 5.95061 14.9345C6.13434 14.7595 6.22678 14.5493 6.23924 14.2966V2.35928H2.71892C2.49404 2.37142 2.30655 2.45018 2.14717 2.61227C1.98924 2.7701 1.91824 2.95556 1.91824 3.17871V3.9227H0.947742V0.368389L1.23405 0.499304C1.38068 0.566258 1.54963 0.615223 1.70611 0.657156C1.92606 0.718298 2.15065 0.765055 2.37552 0.803531C2.62184 0.845929 2.87019 0.876501 3.11882 0.903875C3.34457 0.928663 3.57234 0.944849 3.79953 0.944849H10.7776C11.008 0.944849 11.2386 0.928662 11.4664 0.907187C11.7145 0.88051 11.9605 0.846046 12.2059 0.80696C12.4294 0.76895 12.6525 0.724924 12.8722 0.663753C13.017 0.624929 13.1825 0.577329 13.3181 0.511828L13.6085 0.37144V3.9227H12.6592V3.17871C12.6592 2.95556 12.5879 2.7701 12.4297 2.61143C12.2717 2.45111 12.0883 2.37142 11.8649 2.35928Z" fill="#F7F8F9"/>
</svg>
